<?xml version="1.0" encoding="UTF-8"?>
<svg version="1.1" xmlns="http://www.w3.org/2000/svg" width="1024" height="1024">
<path d="M0 0 C337.92 0 675.84 0 1024 0 C1024 337.92 1024 675.84 1024 1024 C686.08 1024 348.16 1024 0 1024 C0 686.08 0 348.16 0 0 Z " fill="#0D172D" transform="translate(0,0)"/>
<path d="M0 0 C1.77537895 0.01665459 1.77537895 0.01665459 3.58662415 0.03364563 C4.24055145 0.0329155 4.89447876 0.03218536 5.56822205 0.03143311 C7.72795314 0.03491448 9.88552235 0.073794 12.0448761 0.11299133 C13.54273297 0.12231769 15.04060509 0.12943464 16.53848267 0.13442993 C20.47951931 0.15351425 24.41963346 0.20262571 28.36030579 0.25794983 C32.38198873 0.30911241 36.40382085 0.33193747 40.42573547 0.35713196 C48.31613262 0.41074454 56.20578021 0.49607295 64.09565735 0.60127258 C58.88952228 10.08625374 58.88952228 10.08625374 56.1855011 14.22236633 C55.67696594 15.00289368 55.16843079 15.78342102 54.64448547 16.58760071 C53.84687805 17.80093079 53.84687805 17.80093079 53.03315735 19.03877258 C52.46661438 19.90566711 51.90007141 20.77256165 51.31636047 21.66572571 C47.12674481 28.06432671 42.88656639 34.42866538 38.63447571 40.7858429 C34.75247884 46.59696174 30.91232081 52.43454499 27.09565735 58.28877258 C26.28548157 59.52723938 26.28548157 59.52723938 25.4589386 60.79072571 C24.94718079 61.57769836 24.43542297 62.36467102 23.90815735 63.17549133 C23.46085266 63.86215881 23.01354797 64.54882629 22.5526886 65.25630188 C20.64640154 68.32431246 18.8746811 71.45774334 17.09565735 74.60127258 C25.25703916 75.23319032 33.4079396 75.70931401 41.58788109 76.00020123 C45.38973027 76.14003216 49.17466833 76.32827409 52.9667511 76.63813782 C69.95193736 78.33878594 69.95193736 78.33878594 85.12159729 72.16111755 C90.85159272 66.04258594 94.65025824 58.47564639 98.34437561 51.02445984 C100.74475897 46.33248964 103.61804929 42.06295234 106.60346985 37.73017883 C107.56053884 36.28030063 108.51376634 34.82787821 109.46284485 33.37275696 C110.14492004 32.33187927 110.14492004 32.33187927 110.84077454 31.26997375 C111.29613586 30.57492737 111.75149719 29.87988098 112.22065735 29.16377258 C113.6576147 26.97187425 115.09488584 24.78018287 116.53263855 22.58880615 C117.4036846 21.26106095 118.2742918 19.93302765 119.14427185 18.60458374 C119.97288915 17.34101245 120.8166003 16.08723978 121.6733551 14.84257507 C123.21024269 12.50782104 123.21024269 12.50782104 124.64051819 9.48130798 C129.11882698 1.21181928 129.11882698 1.21181928 134.46897888 -0.44058228 C138.69005073 -0.79020456 142.74671792 -0.75243474 146.97065735 -0.57060242 C148.5061527 -0.54818871 150.04173455 -0.53112231 151.5773468 -0.51914978 C155.59760728 -0.4735705 159.61257013 -0.35595119 163.63075256 -0.22270203 C167.7394187 -0.09939626 171.84895114 -0.04502534 175.9589386 0.01533508 C184.00692909 0.14360224 192.05063237 0.34807133 200.09565735 0.60127258 C198.98024994 2.52297634 197.86364541 4.4439853 196.74653625 6.36470032 C195.81401535 7.96945473 195.81401535 7.96945473 194.86265564 9.60662842 C192.83419408 13.04439097 190.70291336 16.35482771 188.47065735 19.66377258 C188.0530011 20.28477844 187.63534485 20.9057843 187.20503235 21.54560852 C183.33977556 27.27850767 179.41620598 32.9717914 175.50239563 38.67158508 C170.39283448 46.13079844 165.36339247 53.6426456 160.34565735 61.16377258 C159.73947571 62.07117188 159.73947571 62.07117188 159.12104797 62.99690247 C157.97062271 64.71960799 156.82189117 66.44342888 155.67378235 68.16767883 C155.0076593 69.16742737 154.34153625 70.1671759 153.65522766 71.19721985 C152.10642245 73.48674389 152.10642245 73.48674389 151.09565735 75.60127258 C159.49426757 75.86599507 167.88755658 76.03641785 176.28990555 76.09092808 C180.19328119 76.11912167 184.09081467 76.17812749 187.99214172 76.31098938 C204.43831923 77.51330873 204.43831923 77.51330873 219.65162659 72.98121643 C223.59074713 69.15905439 226.00241482 64.81389835 228.1217041 59.79393005 C229.69719313 56.24703723 231.84575339 53.08802066 233.97065735 49.85127258 C234.78342824 48.53453389 235.59501662 47.21706262 236.4042511 45.89814758 C245.13560487 31.83004746 254.60050375 18.16337693 264.09565735 4.60127258 C264.50230118 3.88562134 264.90894501 3.16997009 265.32791138 2.43263245 C267.09565735 0.60127258 267.09565735 0.60127258 270 0.12025452 C271.18358597 0.12913696 272.36717194 0.13801941 273.58662415 0.14717102 C274.24055145 0.14658691 274.89447876 0.14600281 275.56822205 0.145401 C277.72764857 0.1481857 279.88569106 0.17929216 282.0448761 0.21064758 C283.54273728 0.21810869 285.04060823 0.22380224 286.53848267 0.22779846 C290.47936491 0.24306532 294.41965671 0.28235534 298.36030579 0.32661438 C302.38203443 0.36754491 306.40385855 0.38580468 310.42573547 0.40596008 C318.31598028 0.44884932 326.20574535 0.5171125 334.09565735 0.60127258 C333.14997576 2.51660302 332.20152064 4.4305642 331.25190735 6.34394836 C330.72403625 7.40993256 330.19616516 8.47591675 329.65229797 9.57420349 C327.69423342 13.38188819 325.48155044 16.92716513 323.09565735 20.47627258 C322.13623354 21.92998055 321.17795969 23.38444794 320.22065735 24.83955383 C319.71663391 25.6034845 319.21261047 26.36741516 318.6933136 27.15449524 C316.38543501 30.68896334 314.13712875 34.26020517 311.88447571 37.83003235 C303.97675695 50.35697266 295.70600451 62.54678655 287.09565735 74.60127258 C308.87565735 75.09627258 308.87565735 75.09627258 331.09565735 75.60127258 C331.18391011 105.7338193 331.25773942 135.86629432 331.29991867 165.99893429 C331.30492124 169.55982137 331.31009855 173.12070818 331.31538391 176.68159485 C331.31643315 177.39047575 331.31748239 178.09935665 331.31856343 178.82971879 C331.33594838 190.29394828 331.36747547 201.75809718 331.40426853 213.22227893 C331.44173125 224.9936662 331.46390444 236.76501138 331.47201133 248.53645581 C331.47699778 255.14490977 331.48944794 261.75321408 331.51857758 268.36161232 C331.54578991 274.58565751 331.55409043 280.80944551 331.54808807 287.03354454 C331.54918569 289.31393203 331.55710457 291.59432839 331.57247925 293.87466431 C331.74467881 320.7396861 331.74467881 320.7396861 322.01753235 330.88252258 C315.04151682 337.12123566 307.73499197 339.84699263 298.30924416 339.85854149 C297.66059324 339.86204756 297.01194232 339.86555364 296.34363532 339.86916596 C294.17907151 339.87843925 292.01477917 339.87356732 289.85020447 339.86869812 C288.27902616 339.87243643 286.7078497 339.87703867 285.13667619 339.88242877 C280.82584615 339.89465165 276.51509375 339.89439914 272.20425034 339.89204001 C267.55247555 339.89163167 262.9007256 339.90267256 258.2489624 339.91215515 C249.13820669 339.92876166 240.02747687 339.93426452 230.91670729 339.93537991 C223.5113407 339.93633044 216.10598264 339.94044099 208.70061874 339.94678116 C187.7039641 339.96439175 166.70732989 339.97362018 145.7106678 339.97212021 C144.01308333 339.97200034 144.01308333 339.97200034 142.28120422 339.97187805 C141.1480993 339.97179629 140.01499438 339.97171453 138.84755294 339.97163029 C120.4794079 339.97081719 102.11134483 339.98996134 83.7432235 340.01815479 C64.88191561 340.0468768 46.0206477 340.06069549 27.15931737 340.05896723 C16.57048224 340.05830315 5.98173307 340.06380363 -4.60708237 340.08532333 C-13.62146411 340.10352601 -22.63572093 340.10788987 -31.65011309 340.09430449 C-36.24871928 340.08777056 -40.84708573 340.08767304 -45.44566917 340.10501099 C-49.65757026 340.12072768 -53.86904123 340.11789254 -58.08093174 340.10044272 C-59.6024088 340.09736976 -61.12391784 340.10101644 -62.64535718 340.11216287 C-74.3108481 340.19194881 -82.4282896 338.54587771 -91.11528015 330.46455383 C-98.16013111 323.12744923 -100.20779899 316.82143952 -100.14485168 306.88867188 C-100.14656053 305.90434718 -100.14826938 304.92002249 -100.15003002 303.90586978 C-100.1533266 300.60463788 -100.1423183 297.30360883 -100.13139343 294.00239563 C-100.13082936 291.63715622 -100.13114581 289.27191645 -100.13227844 286.90667725 C-100.13285309 280.48152782 -100.12108054 274.05645282 -100.10713053 267.63132071 C-100.09495322 261.59815191 -100.09388483 255.5649749 -100.09182678 249.53179608 C-100.08745083 237.58285427 -100.07414444 225.63393979 -100.05522156 213.68501282 C-100.03686017 202.07856889 -100.02270493 190.4721324 -100.01420593 178.86567688 C-100.01368049 178.15011156 -100.01315504 177.43454624 -100.01261367 176.69729712 C-100.01000357 173.10747324 -100.00747616 169.5176493 -100.00498986 165.92782533 C-99.98426048 136.15228896 -99.94888887 106.37678329 -99.90434265 76.60127258 C-98.93683075 76.59762695 -97.96931885 76.59398132 -96.9724884 76.59022522 C-87.82196373 76.55316651 -78.6717722 76.4952758 -69.52150154 76.41736984 C-64.81804707 76.37798356 -60.11477733 76.34575189 -55.41117859 76.33027649 C-50.86570514 76.31505134 -46.32073988 76.28050283 -41.77549362 76.23296356 C-40.04774791 76.21820989 -38.31992962 76.21023505 -36.59212112 76.20938873 C-27.39119324 76.2003554 -19.20488521 76.09335159 -10.90434265 71.60127258 C-9.79703796 71.05986633 -8.68973328 70.51846008 -7.5488739 69.96064758 C1.32501519 64.91783061 7.92513775 59.40598548 11.4355011 49.57392883 C13.30146892 41.17155303 13.59038169 31.27436142 9.42378235 23.54267883 C6.95315159 19.93119799 4.09262109 16.77855157 1.09565735 13.60127258 C-0.22246155 12.10620776 -1.53515768 10.6063409 -2.84184265 9.10127258 C-3.42836609 8.43096008 -4.01488953 7.76064758 -4.6191864 7.07002258 C-5.25533875 6.34299133 -5.25533875 6.34299133 -5.90434265 5.60127258 C-3.76315442 0.7790684 -3.76315442 0.7790684 0 0 Z " fill="#F1B325" transform="translate(398.9043426513672,432.3987274169922)"/>
<path d="M0 0 C1.90942383 1.37939453 1.90942383 1.37939453 3.70703125 3.1328125 C4.37669922 3.77476562 5.04636719 4.41671875 5.73632812 5.078125 C6.42146484 5.75359375 7.10660156 6.4290625 7.8125 7.125 C9.17187633 8.44144866 10.53255226 9.75655669 11.89453125 11.0703125 C12.57080566 11.72483398 13.24708008 12.37935547 13.94384766 13.05371094 C16.60617233 15.57378364 19.35978841 17.97619451 22.1315918 20.37451172 C24.80318716 22.69876129 27.39901577 25.09691674 30 27.5 C33.2778141 30.52004872 36.56583268 33.52204137 39.9375 36.4375 C44.06009757 40.01156068 48.05198978 43.72197438 52.05322266 47.43041992 C56.99115696 52.00367789 61.98211319 56.51448493 67 61 C64.20406145 62.86395904 62.40227583 63.58667729 59.22607422 64.46118164 C57.76290268 64.86827866 57.76290268 64.86827866 56.27017212 65.28359985 C55.20906219 65.57286346 54.14795227 65.86212708 53.0546875 66.16015625 C51.94821869 66.46633881 50.84174988 66.77252136 49.70175171 67.08798218 C46.09427307 68.08479087 42.48471179 69.07381165 38.875 70.0625 C36.41102209 70.74121599 33.94715504 71.4203346 31.48339844 72.09985352 C25.42571366 73.76916722 19.36626735 75.4319835 13.30627441 77.09289551 C9.41306172 78.16103151 5.52117067 79.23390699 1.62954712 80.30781555 C-1.46578355 81.16160994 -4.56179367 82.01291122 -7.65814209 82.86300659 C-9.04783541 83.24466237 -10.43736323 83.62692135 -11.82672119 84.00979614 C-13.71189134 84.52866481 -15.59810046 85.04375442 -17.484375 85.55859375 C-18.51272461 85.84017334 -19.54107422 86.12175293 -20.60058594 86.41186523 C-23 87 -23 87 -25 87 C-22.69733644 89.6946063 -20.3539097 92.35011737 -18 95 C-17.15501953 95.99966797 -17.15501953 95.99966797 -16.29296875 97.01953125 C-12.02054022 101.77223278 -8.3300722 103.29665864 -2 104 C-2.66 105.65 -3.32 107.3 -4 109 C-3.18015625 109.86882812 -2.3603125 110.73765625 -1.515625 111.6328125 C-0.42685931 112.79666547 0.6616698 113.96073979 1.75 115.125 C2.28882813 115.69476563 2.82765625 116.26453125 3.3828125 116.8515625 C11.84997119 125.93826939 14.63129834 133.72235163 14.3046875 146.01953125 C13.65344772 154.52739451 10.37408663 160.66529053 4.5390625 166.828125 C-4.54757623 174.60069598 -16.08503463 180.52402696 -28.16015625 180.34057617 C-29.31770668 180.34123329 -29.31770668 180.34123329 -30.49864197 180.34190369 C-33.02019582 180.33983284 -35.54106397 180.31658378 -38.0625 180.29296875 C-39.82226193 180.28736671 -41.58202857 180.28309948 -43.34179688 180.28010559 C-47.95157002 180.26870468 -52.5610552 180.23927892 -57.17071533 180.20599365 C-61.88330186 180.17518978 -66.59593535 180.16157829 -71.30859375 180.14648438 C-80.53918834 180.11440425 -89.76957013 180.06326601 -99 180 C-98.99723462 181.20836171 -98.99446924 182.41672342 -98.99162006 183.66170216 C-98.92668596 212.32766199 -98.87719823 240.9936208 -98.84680401 269.65963753 C-98.84305177 273.18577085 -98.83916881 276.71190402 -98.83520508 280.23803711 C-98.83441815 280.94004465 -98.83363122 281.64205219 -98.83282044 282.36533269 C-98.81975651 293.74118338 -98.79609726 305.11698873 -98.76854161 316.49281249 C-98.74051482 328.16020315 -98.72405417 339.82756731 -98.71773452 351.49499005 C-98.71381491 358.05062798 -98.70456829 364.60616295 -98.68280983 371.16176796 C-98.6625131 377.32666307 -98.65615238 383.49141239 -98.66067696 389.65633774 C-98.6598487 391.92395379 -98.65384272 394.19157451 -98.64238358 396.45916176 C-98.62754619 399.54553206 -98.6310144 402.63134556 -98.63923645 405.71772766 C-98.63049793 406.62336199 -98.6217594 407.52899631 -98.61275607 408.4620741 C-98.61872922 409.28664521 -98.62470236 410.11121631 -98.63085651 410.96077442 C-98.62914777 412.02987701 -98.62914777 412.02987701 -98.62740451 413.12057763 C-99.10553808 415.53234846 -100.15358647 416.4403509 -102 418 C-101.99777939 416.77802068 -101.99555878 415.55604136 -101.99327087 414.29703236 C-101.9423531 385.29660824 -101.932615 356.29637688 -101.97365963 327.29594632 C-101.97867433 323.72732722 -101.98334115 320.15870774 -101.98779297 316.59008789 C-101.9886851 315.87963313 -101.98957723 315.16917836 -101.9904964 314.43719467 C-102.00411631 302.93008017 -101.98954856 291.42316495 -101.96458304 279.91607688 C-101.93959709 268.11070887 -101.94485781 256.30563446 -101.97825909 244.5002858 C-101.99615336 237.86843499 -101.99902808 231.23711263 -101.96896362 224.60527992 C-101.94111961 218.36613344 -101.95050308 212.12816275 -101.98873711 205.88908195 C-101.99617016 203.5965157 -101.98987178 201.30385854 -101.96898079 199.01137543 C-101.94252433 195.88505892 -101.96503206 192.76281726 -102 189.63667297 C-101.97088233 188.26945074 -101.97088233 188.26945074 -101.94117641 186.87460786 C-101.99984967 184.33867074 -102.12022493 182.38130337 -103 180 C-104.92139721 178.24467898 -106.76250255 177.12512466 -109.09180474 175.97422832 C-111.97793379 174.50071629 -112.88437017 173.0127279 -114 170 C-114.38159498 166.96579605 -114.36597678 163.97926163 -114.32128906 160.92480469 C-114.32023666 160.01813553 -114.31918427 159.11146637 -114.31809998 158.17732239 C-114.31449538 156.20868563 -114.30434968 154.24005243 -114.28842926 152.27147675 C-114.26531942 149.13033974 -114.2643256 145.98990407 -114.26971436 142.84869385 C-114.28233607 133.9170201 -114.26616769 124.98570891 -114.20947266 116.05419922 C-113.46989466 83.79264248 -113.46989466 83.79264248 -120.49511719 52.59863281 C-122.1692768 48.05537204 -122.62332414 43.81244715 -122 39 C-120.79296875 36.66015625 -120.79296875 36.66015625 -119.1875 35.0625 C-118.66542969 34.51722656 -118.14335937 33.97195313 -117.60546875 33.41015625 C-114.49653646 30.67943957 -111.73029647 29.50982354 -107.80078125 28.44921875 C-106.76348877 28.16506104 -105.72619629 27.88090332 -104.6574707 27.58813477 C-103.55363037 27.29092529 -102.44979004 26.99371582 -101.3125 26.6875 C-92.52795718 24.28873854 -83.8362814 21.75523674 -75.20703125 18.84765625 C-71.98978918 17.99730116 -69.31052847 17.8342224 -66 18 C-66 17.34 -66 16.68 -66 16 C-65.39567139 15.84031738 -64.79134277 15.68063477 -64.16870117 15.51611328 C-61.1740341 14.72254739 -58.18064711 13.92428024 -55.1875 13.125 C-53.48557495 12.67157227 -53.48557495 12.67157227 -51.74926758 12.20898438 C-44.69273765 10.31253901 -37.66649358 8.33455502 -30.65625 6.2734375 C-29.07008202 5.80968633 -27.48390042 5.34598179 -25.89770508 4.88232422 C-23.54801435 4.19500199 -21.19986947 3.50371299 -18.85507202 2.79986572 C-16.64965479 2.13794908 -14.44058965 1.48975649 -12.23046875 0.84375 C-11.57312744 0.64204193 -10.91578613 0.44033386 -10.23852539 0.23251343 C-6.47364 -0.85261823 -3.72883001 -1.32653387 0 0 Z " fill="#1E283A" transform="translate(398,329)"/>
<path d="M0 0 C1.77537895 0.01665459 1.77537895 0.01665459 3.58662415 0.03364563 C4.24055145 0.0329155 4.89447876 0.03218536 5.56822205 0.03143311 C7.72795314 0.03491448 9.88552235 0.073794 12.0448761 0.11299133 C13.54273297 0.12231769 15.04060509 0.12943464 16.53848267 0.13442993 C20.47951931 0.15351425 24.41963346 0.20262571 28.36030579 0.25794983 C32.38198873 0.30911241 36.40382085 0.33193747 40.42573547 0.35713196 C48.31613262 0.41074454 56.20578021 0.49607295 64.09565735 0.60127258 C58.88952228 10.08625374 58.88952228 10.08625374 56.1855011 14.22236633 C55.67696594 15.00289368 55.16843079 15.78342102 54.64448547 16.58760071 C53.84687805 17.80093079 53.84687805 17.80093079 53.03315735 19.03877258 C52.46661438 19.90566711 51.90007141 20.77256165 51.31636047 21.66572571 C47.12674481 28.06432671 42.88656639 34.42866538 38.63447571 40.7858429 C34.75247884 46.59696174 30.91232081 52.43454499 27.09565735 58.28877258 C26.28548157 59.52723938 26.28548157 59.52723938 25.4589386 60.79072571 C24.94718079 61.57769836 24.43542297 62.36467102 23.90815735 63.17549133 C23.46085266 63.86215881 23.01354797 64.54882629 22.5526886 65.25630188 C20.64640154 68.32431246 18.8746811 71.45774334 17.09565735 74.60127258 C25.25703916 75.23319032 33.4079396 75.70931401 41.58788109 76.00020123 C45.38973027 76.14003216 49.17466833 76.32827409 52.9667511 76.63813782 C69.95193736 78.33878594 69.95193736 78.33878594 85.12159729 72.16111755 C90.85159272 66.04258594 94.65025824 58.47564639 98.34437561 51.02445984 C100.74475897 46.33248964 103.61804929 42.06295234 106.60346985 37.73017883 C107.56053884 36.28030063 108.51376634 34.82787821 109.46284485 33.37275696 C110.14492004 32.33187927 110.14492004 32.33187927 110.84077454 31.26997375 C111.29613586 30.57492737 111.75149719 29.87988098 112.22065735 29.16377258 C113.6576147 26.97187425 115.09488584 24.78018287 116.53263855 22.58880615 C117.4036846 21.26106095 118.2742918 19.93302765 119.14427185 18.60458374 C119.97288915 17.34101245 120.8166003 16.08723978 121.6733551 14.84257507 C123.21024269 12.50782104 123.21024269 12.50782104 124.64051819 9.48130798 C129.11882698 1.21181928 129.11882698 1.21181928 134.46897888 -0.44058228 C138.69005073 -0.79020456 142.74671792 -0.75243474 146.97065735 -0.57060242 C148.5061527 -0.54818871 150.04173455 -0.53112231 151.5773468 -0.51914978 C155.59760728 -0.4735705 159.61257013 -0.35595119 163.63075256 -0.22270203 C167.7394187 -0.09939626 171.84895114 -0.04502534 175.9589386 0.01533508 C184.00692909 0.14360224 192.05063237 0.34807133 200.09565735 0.60127258 C198.98024994 2.52297634 197.86364541 4.4439853 196.74653625 6.36470032 C195.81401535 7.96945473 195.81401535 7.96945473 194.86265564 9.60662842 C192.83419408 13.04439097 190.70291336 16.35482771 188.47065735 19.66377258 C188.0530011 20.28477844 187.63534485 20.9057843 187.20503235 21.54560852 C183.33977556 27.27850767 179.41620598 32.9717914 175.50239563 38.67158508 C170.39283448 46.13079844 165.36339247 53.6426456 160.34565735 61.16377258 C159.73947571 62.07117188 159.73947571 62.07117188 159.12104797 62.99690247 C157.97062271 64.71960799 156.82189117 66.44342888 155.67378235 68.16767883 C155.0076593 69.16742737 154.34153625 70.1671759 153.65522766 71.19721985 C152.10642245 73.48674389 152.10642245 73.48674389 151.09565735 75.60127258 C151.78625748 75.5865239 152.4768576 75.57177521 153.18838501 75.55657959 C186.62819794 74.85333867 220.04162553 74.42372637 253.48722458 74.94189835 C255.7261197 74.97635665 257.96503698 75.00888796 260.20396423 75.04118347 C264.36855234 75.1024159 268.53285894 75.17455862 272.69721985 75.24971008 C274.56897636 75.27955238 274.56897636 75.27955238 276.47854614 75.30999756 C277.60596725 75.33312515 278.73338837 75.35625275 279.89497375 75.38008118 C280.88091522 75.39864166 281.86685669 75.41720215 282.88267517 75.43632507 C285.09565735 75.60127258 285.09565735 75.60127258 286.09565735 76.60127258 C287.47616593 76.72325066 288.86263382 76.77896157 290.24824524 76.80659485 C291.12908279 76.82654007 292.00992035 76.84648529 292.91744995 76.86703491 C293.87473495 76.88374741 294.83201996 76.9004599 295.8183136 76.91767883 C296.79352463 76.93845993 297.76873566 76.95924103 298.77349854 76.98065186 C301.90164365 77.04625671 305.02987557 77.10508286 308.15815735 77.16377258 C310.27340085 77.20694742 312.38863544 77.25056136 314.50386047 77.29463196 C319.70103619 77.40194919 324.89829957 77.50318543 330.09565735 77.60127258 C330.09565735 83.21127258 330.09565735 88.82127258 330.09565735 94.60127258 C188.52565735 94.60127258 46.95565735 94.60127258 -98.90434265 94.60127258 C-98.90434265 88.99127258 -98.90434265 83.38127258 -98.90434265 77.60127258 C-95.39148621 77.57154358 -95.39148621 77.57154358 -91.80766296 77.54121399 C-84.07227159 77.47432406 -76.33701506 77.39668428 -68.60177994 77.3137455 C-63.91164867 77.2637876 -59.22153988 77.21745748 -54.53129578 77.17939758 C-50.00543022 77.14253843 -45.47975286 77.09617669 -40.95404816 77.04320908 C-39.22691396 77.02466849 -37.49973942 77.00955928 -35.77254486 76.99792862 C-33.35436711 76.9810604 -30.93662007 76.95202424 -28.51860046 76.92012024 C-27.80362396 76.91796005 -27.08864746 76.91579987 -26.352005 76.91357422 C-22.67527169 76.851554 -20.03722055 76.56307524 -16.90434265 74.60127258 C-15.77383484 74.02892883 -14.64332703 73.45658508 -13.4785614 72.86689758 C-2.33302855 67.12984811 6.32740872 61.94917356 11.2089386 49.83955383 C13.45287537 41.64473628 13.50636692 31.11846077 9.42378235 23.54267883 C6.95315159 19.93119799 4.09262109 16.77855157 1.09565735 13.60127258 C-0.22246155 12.10620776 -1.53515768 10.6063409 -2.84184265 9.10127258 C-3.42836609 8.43096008 -4.01488953 7.76064758 -4.6191864 7.07002258 C-5.25533875 6.34299133 -5.25533875 6.34299133 -5.90434265 5.60127258 C-3.76315442 0.7790684 -3.76315442 0.7790684 0 0 Z " fill="#D2941C" transform="translate(398.9043426513672,432.3987274169922)"/>
<path d="M0 0 C1.3660713 -0.00576164 2.73213486 -0.01370305 4.0981822 -0.02363622 C7.85136411 -0.04452772 11.60391115 -0.03418444 15.35709548 -0.01870513 C19.40490145 -0.00740476 23.45259729 -0.02484776 27.50038147 -0.03860474 C35.42969394 -0.06085581 43.35876998 -0.05602769 51.28809178 -0.04154153 C57.73150457 -0.03025662 64.17485104 -0.02871514 70.61827087 -0.03416061 C71.53479438 -0.03492678 72.45131789 -0.03569294 73.39561483 -0.03648233 C75.25742553 -0.03808093 77.1192362 -0.03970199 78.98104686 -0.04134528 C96.44557004 -0.05560826 113.90996206 -0.03920147 131.37446374 -0.01234345 C146.36482049 0.00999583 161.35498366 0.00611586 176.34533691 -0.01693726 C193.74670173 -0.04368558 211.14795155 -0.05423491 228.54933405 -0.03887594 C230.4043544 -0.03728317 232.25937476 -0.03571131 234.11439514 -0.03416061 C235.02713714 -0.03338924 235.93987914 -0.03261786 236.88027999 -0.03182311 C243.31710089 -0.0275032 249.75384895 -0.03479891 256.19065857 -0.04655838 C264.03339638 -0.06057119 271.87588392 -0.05680923 279.718593 -0.03015466 C283.72131398 -0.01699989 287.72361749 -0.01189196 291.72633553 -0.02840042 C295.38929419 -0.0432793 299.05144771 -0.03514722 302.71433312 -0.00851266 C304.66986817 -0.00026486 306.62545893 -0.01662413 308.58093596 -0.03379881 C317.06469108 0.06157128 317.06469108 0.06157128 321.11687469 2.95975685 C323.36953447 6.40438217 324.01119307 8.50640643 323.86633301 12.63491821 C322.13936611 15.6621896 320.02679971 18.05468486 316.86633301 19.63491821 C315.07837116 19.73282292 313.28672646 19.7659236 311.49608898 19.76913929 C309.77568536 19.77582606 309.77568536 19.77582606 308.02052611 19.78264791 C306.7496404 19.78246355 305.4787547 19.78227918 304.1693573 19.78208923 C302.81413426 19.78538703 301.4589122 19.78911242 300.1036914 19.79323071 C296.3667439 19.80326835 292.62981246 19.80697033 288.89285338 19.80962002 C284.86752679 19.81351782 280.84221298 19.82309647 276.81689453 19.83183289 C267.08977776 19.85161149 257.36265992 19.86166498 247.63552806 19.87056068 C243.05814831 19.87494103 238.48076972 19.88030847 233.90339088 19.88554955 C218.69303344 19.90256273 203.48267672 19.91705801 188.27231121 19.92429829 C184.32358995 19.92620827 180.3748687 19.92812859 176.42614746 19.93008423 C174.9539429 19.93080984 174.9539429 19.93080984 173.45199684 19.93155011 C157.5445775 19.93985453 141.63723326 19.96519798 125.72984674 19.99766491 C109.40898865 20.03070498 93.08816878 20.04874425 76.76727706 20.05194253 C67.59924115 20.05411039 58.43131477 20.06289937 49.26331139 20.0884037 C41.45715516 20.11006902 33.65113507 20.11818173 25.84495219 20.10843692 C21.86051315 20.10388014 17.87635523 20.10585791 13.89195442 20.12519836 C10.24566154 20.14274516 6.59985659 20.14190217 2.95355914 20.12630107 C1.00680764 20.12277858 -0.93994848 20.13901444 -2.88662988 20.15590554 C-4.04138887 20.14732465 -5.19614786 20.13874376 -6.38589954 20.12990284 C-7.38234071 20.13087965 -8.37878187 20.13185646 -9.40541822 20.13286287 C-12.89790543 19.4954337 -14.58666926 18.05567832 -17.13366699 15.63491821 C-18.71264753 12.47695715 -18.9529487 9.02821186 -18.13366699 5.63491821 C-13.67414582 -1.12736985 -7.49434725 -0.0658218 0 0 Z " fill="#2D374E" transform="translate(362.1336669921875,632.3650817871094)"/>
<path d="M0 0 C1.72040362 -0.00576172 1.72040362 -0.00576172 3.47556287 -0.01163983 C4.74644858 -0.01077335 6.01733429 -0.00990687 7.32673168 -0.00901413 C8.68195451 -0.01159641 10.03717658 -0.01460918 11.39239758 -0.01801753 C15.12934741 -0.02610697 18.86627805 -0.02787818 22.6032356 -0.028615 C26.62856049 -0.03046219 30.65387534 -0.03800782 34.67919445 -0.04475021 C43.4869807 -0.0583479 52.29476242 -0.0643605 61.10255742 -0.06876087 C66.59927197 -0.07152089 72.09598474 -0.0757578 77.5926981 -0.08026505 C92.80305687 -0.09245963 108.01341422 -0.10275854 123.22377777 -0.10614014 C124.19779382 -0.1063597 125.17180987 -0.10657927 126.17534156 -0.10680549 C127.63991815 -0.10713291 127.63991815 -0.10713291 129.13408214 -0.10746694 C131.11270193 -0.10791041 133.09132173 -0.10835697 135.06994152 -0.10880661 C136.54214608 -0.10913875 136.54214608 -0.10913875 138.04409214 -0.10947761 C153.95149667 -0.11342658 169.85885541 -0.13088276 185.76624224 -0.15416613 C202.08710064 -0.17786243 218.40793604 -0.1903412 234.72881192 -0.19150805 C243.89682583 -0.19242579 253.06478009 -0.19820283 262.2327776 -0.21632767 C270.03891926 -0.23170545 277.84498286 -0.2368629 285.65113679 -0.22858956 C289.63552823 -0.22467478 293.61976234 -0.22565282 297.60413456 -0.23964691 C301.25035865 -0.25233647 304.8963064 -0.25123222 308.54252984 -0.2390562 C310.48927046 -0.23615804 312.43601562 -0.24807238 314.38271886 -0.26047826 C316.11485734 -0.25059349 316.11485734 -0.25059349 317.88198853 -0.24050903 C318.87842969 -0.24110612 319.87487085 -0.24170321 320.9015072 -0.24231839 C324.78172615 0.28923758 327.5765831 1.79102593 330.00475597 4.88142776 C330.94673399 8.27254863 330.47727797 10.7413398 329.62975597 14.13142776 C327.73864486 16.44956397 326.29147567 17.80056792 323.62975597 19.13142776 C321.84179412 19.22933247 320.05014942 19.26243315 318.25951195 19.26564884 C316.53910833 19.27233561 316.53910833 19.27233561 314.78394908 19.27915746 C313.51306337 19.2789731 312.24217766 19.27878873 310.93278027 19.27859879 C309.57755722 19.28189658 308.22233516 19.28562197 306.86711437 19.28974026 C303.13016686 19.2997779 299.39323542 19.30347988 295.65627635 19.30612957 C291.63094975 19.31002738 287.60563595 19.31960602 283.5803175 19.32834244 C273.85320072 19.34812104 264.12608288 19.35817453 254.39895102 19.36707023 C249.82157127 19.37145058 245.24419268 19.37681802 240.66681385 19.3820591 C225.4564564 19.39907228 210.24609968 19.41356756 195.03573418 19.42080784 C191.08701292 19.42271782 187.13829166 19.42463814 183.18957043 19.42659378 C181.71736587 19.42731939 181.71736587 19.42731939 180.21541981 19.42805966 C164.30800047 19.43636408 148.40065623 19.46170753 132.4932697 19.49417446 C116.17241162 19.52721453 99.85159174 19.54525381 83.53070003 19.54845208 C74.36266412 19.55061994 65.19473773 19.55940892 56.02673435 19.58491325 C48.22057813 19.60657857 40.41455803 19.61469128 32.60837515 19.60494647 C28.62393612 19.60038969 24.63977819 19.60236746 20.65537739 19.62170792 C17.0090845 19.63925471 13.36327956 19.63841172 9.7169821 19.62281062 C7.77023061 19.61928813 5.82347449 19.63552399 3.87679309 19.6524151 C2.7220341 19.6438342 1.56727511 19.63525331 0.37752342 19.62641239 C-0.61891774 19.6273892 -1.6153589 19.62836601 -2.64199525 19.62937242 C-6.13448246 18.99194326 -7.82324629 17.55218787 -10.37024403 15.13142776 C-11.92048867 12.03093848 -11.66016418 9.55248559 -11.37024403 6.13142776 C-8.00825492 0.97637781 -5.97484583 0.00747789 0 0 Z " fill="#2B364F" transform="translate(355.3702440261841,568.8685722351074)"/>
<path d="M0 0 C1.18358597 0.00888245 2.36717194 0.01776489 3.58662415 0.0269165 C4.24055145 0.0263324 4.89447876 0.02574829 5.56822205 0.02514648 C7.72764857 0.02793119 9.88569106 0.05903765 12.0448761 0.09039307 C13.54273728 0.09785418 15.04060823 0.10354772 16.53848267 0.10754395 C20.47936491 0.1228108 24.41965671 0.16210083 28.36030579 0.20635986 C32.38203443 0.24729039 36.40385855 0.26555017 40.42573547 0.28570557 C48.31598028 0.32859481 56.20574535 0.39685799 64.09565735 0.48101807 C63.14997576 2.3963485 62.20152064 4.31030969 61.25190735 6.22369385 C60.72403625 7.28967804 60.19616516 8.35566223 59.65229797 9.45394897 C57.69423342 13.26163367 55.48155044 16.80691061 53.09565735 20.35601807 C52.13623354 21.80972604 51.17795969 23.26419343 50.22065735 24.71929932 C49.71663391 25.48322998 49.21261047 26.24716064 48.6933136 27.03424072 C46.38543501 30.56870882 44.13712875 34.13995066 41.88447571 37.70977783 C33.97675695 50.23671814 25.70600451 62.42653204 17.09565735 74.48101807 C38.87565735 74.97601807 38.87565735 74.97601807 61.09565735 75.48101807 C61.09565735 153.36101807 61.09565735 231.24101807 61.09565735 311.48101807 C60.76565735 311.48101807 60.43565735 311.48101807 60.09565735 311.48101807 C60.09565735 234.26101807 60.09565735 157.04101807 60.09565735 77.48101807 C45.57565735 77.48101807 31.05565735 77.48101807 16.09565735 77.48101807 C15.76565735 77.15101807 15.43565735 76.82101807 15.09565735 76.48101807 C13.01023914 76.35715466 10.92065594 76.30302739 8.83174133 76.2756958 C8.17810608 76.2657962 7.52447083 76.25589661 6.85102844 76.24569702 C4.68130671 76.21400173 2.51156304 76.18929315 0.3417511 76.16461182 C-1.15898217 76.1440492 -2.65970955 76.12305292 -4.16043091 76.10163879 C-8.11745959 76.04634652 -12.07454114 75.99696896 -16.03166199 75.9487915 C-20.06674425 75.89862857 -24.10174937 75.84291539 -28.13676453 75.78765869 C-36.05922542 75.67998966 -43.98175069 75.57856428 -51.90434265 75.48101807 C-50.67461877 72.33205399 -49.44699337 69.5537037 -47.5410614 66.75836182 C-47.07280945 66.06500732 -46.6045575 65.37165283 -46.12211609 64.6572876 C-45.61712585 63.91849365 -45.11213562 63.17969971 -44.59184265 62.41851807 C-43.50611783 60.81118049 -42.42152381 59.20307861 -41.3379364 57.59429932 C-40.77445496 56.75850342 -40.21097351 55.92270752 -39.63041687 55.06158447 C-36.76099851 50.77166197 -33.95840738 46.43882586 -31.15434265 42.10601807 C-24.58803178 31.97939292 -17.91992135 21.93350749 -11.09184265 11.98101807 C-10.38873962 10.95572998 -10.38873962 10.95572998 -9.6714325 9.909729 C-9.22622253 9.26294189 -8.78101257 8.61615479 -8.3223114 7.94976807 C-7.73099426 7.09028564 -7.73099426 7.09028564 -7.12773132 6.21343994 C-6.52215393 5.35589111 -6.52215393 5.35589111 -5.90434265 4.48101807 C-5.51798645 3.79465271 -5.13163025 3.10828735 -4.73356628 2.40112305 C-2.90434265 0.48101807 -2.90434265 0.48101807 0 0 Z " fill="#F2B524" transform="translate(668.9043426513672,432.51898193359375)"/>
<path d="M0 0 C2.03291124 1.75556611 3.99203582 3.52774434 5.9375 5.375 C7.10275116 6.46626696 8.26811898 7.55740936 9.43359375 8.6484375 C10.02640137 9.2062793 10.61920898 9.76412109 11.22998047 10.33886719 C13.97017023 12.91048804 16.73550901 15.45456601 19.5 18 C20.58347081 18.99985105 21.66680375 19.99985151 22.75 21 C23.28625 21.495 23.8225 21.99 24.375 22.5 C30.33333333 28 36.29166667 33.5 42.25 39 C42.78729736 39.49580566 43.32459473 39.99161133 43.87817383 40.50244141 C44.95157821 41.49359939 46.02434213 42.48545148 47.09643555 43.47802734 C49.95156755 46.11962244 52.81975443 48.74510817 55.70703125 51.3515625 C56.3103125 51.89941406 56.91359375 52.44726562 57.53515625 53.01171875 C58.69911581 54.06823589 59.86695559 55.12049764 61.0390625 56.16796875 C62.39731737 57.40489068 63.70417932 58.69781686 65 60 C65 60.66 65 61.32 65 62 C57.77233207 64.07299235 50.54278785 66.13932408 43.31126404 68.19882202 C39.00589535 69.42569862 34.70283813 70.66036846 30.40103149 71.89967346 C27.49647273 72.73501742 24.59033281 73.56476188 21.68383789 74.39334106 C20.27463999 74.79634263 18.86610265 75.20166153 17.45825195 75.60934448 C15.47516619 76.18319595 13.48987907 76.74873432 11.50390625 77.3125 C10.36767822 77.63863281 9.2314502 77.96476562 8.06079102 78.30078125 C1.341682 79.83572009 1.341682 79.83572009 -1.70654297 77.93701172 C-2.21330566 77.43959473 -2.72006836 76.94217773 -3.2421875 76.4296875 C-3.82564941 75.87007324 -4.40911133 75.31045898 -5.01025391 74.73388672 C-5.62562012 74.1204541 -6.24098633 73.50702148 -6.875 72.875 C-8.21323397 71.58301455 -9.55178457 70.29135699 -10.890625 69 C-11.57189453 68.33484375 -12.25316406 67.6696875 -12.95507812 66.984375 C-16.13374476 63.89982361 -19.37962609 60.88901383 -22.625 57.875 C-23.87902 56.70454894 -25.1329274 55.53397723 -26.38671875 54.36328125 C-30.24556724 50.76695341 -34.1237023 47.19179927 -38.00512695 43.61987305 C-41.04660789 40.81653835 -44.07256862 37.99761263 -47.0859375 35.1640625 C-47.7879126 34.50398193 -48.4898877 33.84390137 -49.21313477 33.16381836 C-50.56639533 31.88987438 -51.91853321 30.61473624 -53.26928711 29.33813477 C-57.7536281 25.1156531 -62.33942721 21.02696249 -67 17 C-66 15 -66 15 -64.15168762 14.2928772 C-63.34342026 14.07843964 -62.53515289 13.86400208 -61.70239258 13.64306641 C-60.7866597 13.39585846 -59.87092682 13.14865051 -58.92744446 12.89395142 C-57.9265831 12.63246307 -56.92572174 12.37097473 -55.89453125 12.1015625 C-54.86373947 11.82533051 -53.83294769 11.54909851 -52.7709198 11.26449585 C-49.45341185 10.37709409 -46.13310025 9.50075214 -42.8125 8.625 C-39.54637687 7.75602925 -36.28086341 6.8848089 -33.01559448 6.01263428 C-30.90398057 5.44978823 -28.7916187 4.88974034 -26.67849731 4.33258057 C-22.25232663 3.1616715 -17.84059994 1.97731168 -13.46630859 0.62402344 C-12.22316895 0.24020508 -10.9800293 -0.14361328 -9.69921875 -0.5390625 C-8.15560669 -1.04107178 -8.15560669 -1.04107178 -6.58081055 -1.55322266 C-3.53427502 -2.08062404 -2.51845295 -1.72001811 0 0 Z " fill="#F1B425" transform="translate(526,294)"/>
<path d="M0 0 C1.90942383 1.37939453 1.90942383 1.37939453 3.70703125 3.1328125 C4.37669922 3.77476562 5.04636719 4.41671875 5.73632812 5.078125 C6.42146484 5.75359375 7.10660156 6.4290625 7.8125 7.125 C9.17187633 8.44144866 10.53255226 9.75655669 11.89453125 11.0703125 C12.57080566 11.72483398 13.24708008 12.37935547 13.94384766 13.05371094 C16.60617233 15.57378364 19.35978841 17.97619451 22.1315918 20.37451172 C24.80318716 22.69876129 27.39901577 25.09691674 30 27.5 C33.2778141 30.52004872 36.56583268 33.52204137 39.9375 36.4375 C44.06009757 40.01156068 48.05198978 43.72197438 52.05322266 47.43041992 C56.99115696 52.00367789 61.98211319 56.51448493 67 61 C64.11294004 62.92470664 62.14288337 63.66010408 58.84521484 64.57226562 C57.79337006 64.86597046 56.74152527 65.15967529 55.6578064 65.46228027 C54.52033966 65.77379028 53.38287292 66.08530029 52.2109375 66.40625 C51.03794098 66.73161743 49.86494446 67.05698486 48.65640259 67.39221191 C46.17056545 68.08059314 43.68400151 68.76635431 41.19677734 69.44970703 C37.40947709 70.49052508 33.62449945 71.53945502 29.83984375 72.58984375 C27.42200836 73.25829505 25.00404363 73.92627875 22.5859375 74.59375 C21.46061615 74.90526001 20.3352948 75.21677002 19.1758728 75.53771973 C16.12143885 76.3755395 13.06348349 77.19594776 10 78 C9.11174026 78.23404037 8.22348053 78.46808075 7.30830383 78.70921326 C1.31107627 80.18513063 1.31107627 80.18513063 -1.56640625 78.47265625 C-2.22511719 77.67730469 -2.88382812 76.88195312 -3.5625 76.0625 C-4.30371094 75.22074219 -5.04492188 74.37898438 -5.80859375 73.51171875 C-6.53175781 72.68285156 -7.25492187 71.85398437 -8 71 C-9.35091873 69.76480243 -10.72476757 68.5540011 -12.125 67.375 C-15.28303688 64.66632805 -18.2132783 61.8114552 -21.12573242 58.84301758 C-22.93255954 57.06631602 -24.79362885 55.40547695 -26.71484375 53.75390625 C-30.93291061 50.08597991 -35.00724827 46.28371321 -39.0625 42.4375 C-43.4807605 38.25779906 -47.90100151 34.08166814 -52.3671875 29.953125 C-53.05288818 29.31834229 -53.73858887 28.68355957 -54.44506836 28.02954102 C-55.74571438 26.82706898 -57.04851865 25.62692601 -58.35375977 24.42944336 C-58.93697998 23.88940674 -59.5202002 23.34937012 -60.12109375 22.79296875 C-60.6308374 22.3239917 -61.14058105 21.85501465 -61.66577148 21.37182617 C-63 20 -63 20 -65 17 C-58.81290254 14.12612131 -52.45052929 12.25870191 -45.8984375 10.390625 C-44.74381012 10.0595575 -43.58918274 9.72848999 -42.39956665 9.38739014 C-39.9679484 8.69240717 -37.53558878 8.00001349 -35.10253906 7.31005859 C-31.37747523 6.25070392 -27.65754437 5.17448536 -23.9375 4.09765625 C-21.57060892 3.42343769 -19.20343081 2.75022578 -16.8359375 2.078125 C-15.16862076 1.59233978 -15.16862076 1.59233978 -13.46762085 1.09674072 C-12.42949249 0.80603699 -11.39136414 0.51533325 -10.32177734 0.21582031 C-9.41245453 -0.04382507 -8.50313171 -0.30347046 -7.56625366 -0.57098389 C-4.70794286 -1.04882495 -2.77135011 -0.80254 0 0 Z " fill="#F1B425" transform="translate(398,329)"/>
<path d="M0 0 C1.95703125 1.50390625 1.95703125 1.50390625 3.8125 3.5625 C6.35020323 6.26529545 8.86836061 8.84124166 11.6875 11.25 C15.32527264 14.38034266 18.85641502 17.61235837 22.375 20.875 C26.2259865 24.44434143 30.08877553 27.99646017 34 31.5 C37.79976393 34.90689658 41.56438382 38.34906495 45.3125 41.8125 C45.85237549 42.31112549 46.39225098 42.80975098 46.94848633 43.32348633 C49.85397109 46.00926821 52.75368613 48.70109059 55.6484375 51.3984375 C56.24100342 51.94910889 56.83356934 52.49978027 57.4440918 53.06713867 C58.58537435 54.12787138 59.7249308 55.19046505 60.86254883 56.25512695 C63.70633852 58.93777345 63.70633852 58.93777345 67 61 C67 61.66 67 62.32 67 63 C58.98845486 65.24529421 50.97407552 67.4800435 42.95586014 69.70138645 C39.2327789 70.73317411 35.51077961 71.76856639 31.79101562 72.81225586 C28.20127766 73.81931904 24.60901191 74.81683488 21.0147934 75.80778313 C19.64392501 76.18754092 18.27400261 76.57073076 16.90506744 76.95739937 C14.98775085 77.49833206 13.06669461 78.02595631 11.14550781 78.55297852 C10.05296692 78.8572023 8.96042603 79.16142609 7.83477783 79.47486877 C5.02321627 79.99569928 3.61553282 80.06937079 1 79 C-1.03638202 77.32211525 -2.91901141 75.63901354 -4.8125 73.8125 C-5.37509521 73.28148682 -5.93769043 72.75047363 -6.51733398 72.20336914 C-7.72446508 71.06380691 -8.92889085 69.92137341 -10.13085938 68.77636719 C-13.25417462 65.80807543 -16.41034114 62.87508858 -19.5625 59.9375 C-20.50923584 59.05288086 -20.50923584 59.05288086 -21.47509766 58.15039062 C-27.28056254 52.72696278 -33.13440621 47.35829919 -39 42 C-39.98454037 41.09913903 -40.96891404 40.19809584 -41.953125 39.296875 C-42.44562744 38.84594482 -42.93812988 38.39501465 -43.44555664 37.93041992 C-44.43266928 37.02536476 -45.41885028 36.11929234 -46.40405273 35.2121582 C-49.13200953 32.70161143 -51.87708302 30.213097 -54.64453125 27.74609375 C-55.24595947 27.20460693 -55.8473877 26.66312012 -56.46704102 26.10522461 C-57.63480291 25.05387113 -58.80829285 24.00883718 -59.98803711 22.97094727 C-61.38286509 21.70804221 -62.6991947 20.35955134 -64 19 C-64 18.01 -64 17.02 -64 16 C-56.39574381 13.90638003 -48.78964926 11.81963264 -41.18112659 9.74157715 C-37.64805783 8.77638764 -34.11566351 7.80886406 -30.5847168 6.8359375 C-27.17569073 5.8966987 -23.76501729 4.96368146 -20.35312462 4.03491211 C-18.42156167 3.50738229 -16.4917477 2.97346203 -14.56196594 2.43945312 C-13.38111923 2.11912109 -12.20027252 1.79878906 -10.98364258 1.46875 C-9.94661697 1.18451172 -8.90959137 0.90027344 -7.84114075 0.60742188 C-5.09709897 0.02075928 -2.79309758 -0.23080725 0 0 Z " fill="#F1B425" transform="translate(651,258)"/>
<path d="M0 0 C2.19532631 0.03361908 4.38374799 0.12585743 6.57723045 0.22028255 C8.1127258 0.24269626 9.64830765 0.25976266 11.18391991 0.27173519 C15.20418039 0.31731447 19.21914324 0.43493379 23.23732567 0.56818295 C27.3459918 0.69148871 31.45552424 0.74585963 35.5655117 0.80622005 C43.6135022 0.93448721 51.65720547 1.1389563 59.70223045 1.39215755 C58.58682304 3.31386132 57.47021852 5.23487027 56.35310936 7.15558529 C55.73142876 8.22542156 55.10974815 9.29525784 54.46922874 10.39751339 C52.44076719 13.83527595 50.30948647 17.14571268 48.07723045 20.45465755 C47.6595742 21.07566341 47.24191795 21.69666927 46.81160545 22.33649349 C42.94613324 28.06971215 39.02446862 33.76487346 35.10677147 39.46247005 C31.67887164 44.46159479 28.29529393 49.48834894 24.9405117 54.5366888 C24.53283562 55.14997036 24.12515953 55.76325191 23.70512962 56.39511776 C21.67249417 59.45454067 19.64337329 62.51623649 17.61824608 65.58063412 C16.871551 66.70664365 16.12480845 67.8326217 15.3780117 68.9585638 C14.71712547 69.95831234 14.05623924 70.95806087 13.37532616 71.98810482 C11.70223045 74.39215755 11.70223045 74.39215755 9.70223045 76.39215755 C6.88017845 76.67063046 6.88017845 76.67063046 3.23299217 76.71100521 C2.2376899 76.72607365 2.2376899 76.72607365 1.2222805 76.7414465 C-0.97449806 76.77237744 -3.17115424 76.78934067 -5.36808205 76.80622005 C-6.88981118 76.82492379 -8.41152986 76.8444966 -9.93323708 76.86490536 C-13.9412006 76.9163168 -17.94919778 76.95589404 -21.95731544 76.99304867 C-26.04614588 77.03303203 -30.13483522 77.08415014 -34.2235508 77.13434505 C-42.24819413 77.23121095 -50.27290708 77.31558135 -58.29776955 77.39215755 C-56.65109135 73.06906467 -54.47888942 69.4120777 -51.8876133 65.5991888 C-51.22815964 64.61630383 -51.22815964 64.61630383 -50.55538368 63.61356258 C-49.6105184 62.20617909 -48.66359822 60.80017339 -47.71482277 59.39542294 C-45.20852819 55.68436793 -42.71706969 51.96336567 -40.2235508 48.24372005 C-39.72119911 47.49525311 -39.21884743 46.74678616 -38.70127296 45.97563839 C-33.37583615 38.03424768 -28.14607176 30.0321127 -22.93033791 22.01837826 C-21.71592021 20.15342965 -20.48859419 18.29677848 -19.2444706 16.45151424 C-17.25249317 13.44090715 -17.25249317 13.44090715 -15.7419529 10.25179195 C-11.73868908 2.78512597 -8.61395422 0.12509899 0 0 Z " fill="#F1B425" transform="translate(539.2977695465088,431.60784244537354)"/>
<path d="M0 0 C2.84539473 2.01866402 5.09745166 4.48844682 7.4375 7.0625 C8.75733397 8.45091358 10.07892827 9.83765609 11.40234375 11.22265625 C12.02608887 11.88410645 12.64983398 12.54555664 13.29248047 13.22705078 C15.81630013 15.84757957 18.53678568 18.18624997 21.3125 20.53125 C23.71072644 22.61859523 25.90286884 24.89140965 28.12841797 27.15966797 C29.92795942 28.92916228 31.78128549 30.5823803 33.6953125 32.2265625 C38.03181625 35.99682852 42.20897588 39.91830226 46.375 43.875 C51.92467815 49.12481016 57.50377938 54.32411273 63.21484375 59.3984375 C64.51119985 60.56147032 65.76850001 61.76850001 67 63 C66.21689453 63.20568604 65.43378906 63.41137207 64.62695312 63.62329102 C60.91709921 64.59975359 57.20833128 65.58027512 53.5 66.5625 C52.82505493 66.74096466 52.15010986 66.91942932 51.45471191 67.103302 C41.20726719 69.81733491 31.01470859 72.67255454 20.89257812 75.82836914 C18.27376292 76.62148663 15.6552639 77.33972843 13 78 C11.70932617 78.32291016 11.70932617 78.32291016 10.39257812 78.65234375 C6.73541436 79.32082761 4.19190227 79.66876523 0.87792969 77.80932617 C-1.24568822 76.03179275 -3.1144653 74.15287501 -5 72.125 C-6.38998051 70.72592191 -7.78060339 69.32748171 -9.171875 67.9296875 C-9.83123047 67.24874023 -10.49058594 66.56779297 -11.16992188 65.86621094 C-13.43882269 63.55251326 -15.8185259 61.3912659 -18.25 59.25 C-21.90444799 55.98929725 -25.52157786 52.69176084 -29.125 49.375 C-32.99697399 45.81414508 -36.90905694 42.3095532 -40.88671875 38.8671875 C-43.04507945 36.9601701 -45.1602243 35.01007947 -47.27246094 33.05224609 C-52.6913067 28.03027838 -58.22589132 23.27549304 -64.015625 18.6796875 C-64.67046875 18.12539063 -65.3253125 17.57109375 -66 17 C-66 16.67 -66 16.34 -66 16 C-64.7625 15.72027344 -63.525 15.44054687 -62.25 15.15234375 C-46.84960447 11.61044846 -31.72839584 7.27486373 -16.6171875 2.6640625 C-15.40289062 2.30054688 -14.18859375 1.93703125 -12.9375 1.5625 C-11.93589844 1.25441406 -10.93429687 0.94632812 -9.90234375 0.62890625 C-6.2701222 -0.15815656 -3.71088218 -0.55663233 0 0 Z " fill="#303A4E" transform="translate(461,311)"/>
<path d="M0 0 C9.95832111 -0.03135124 19.91663805 -0.05123361 29.875 -0.0625 C30.62615585 -0.06335602 31.37731171 -0.06421204 32.15122986 -0.06509399 C56.52154972 -0.08955547 80.88297058 0.1011884 105.25 0.5 C106.34651005 0.51793673 106.34651005 0.51793673 107.46517181 0.53623581 C116.31027817 0.68173942 125.15521506 0.8360466 134 1 C130.61775338 7.31738297 126.91952912 13.31891486 122.9140625 19.2578125 C122.33943771 20.11628281 121.76481293 20.97475311 121.17277527 21.85923767 C119.32653565 24.61652849 117.47573821 27.37072726 115.625 30.125 C113.0983927 33.89588657 110.57438838 37.66851139 108.05078125 41.44140625 C107.43581284 42.36024094 106.82084442 43.27907562 106.1872406 44.22575378 C100.72391589 52.39566792 95.33592147 60.61168818 90.00048828 68.86572266 C89.47052246 69.68476074 88.94055664 70.50379883 88.39453125 71.34765625 C87.94956299 72.03867432 87.50459473 72.72969238 87.04614258 73.44165039 C86 75 86 75 85 76 C82.94443339 76.09413687 80.88559819 76.11742998 78.82788086 76.11352539 C78.18399918 76.11367142 77.54011749 76.11381744 76.87672424 76.1139679 C74.73939697 76.11326885 72.60215587 76.10547691 70.46484375 76.09765625 C68.98653715 76.09579204 67.50822993 76.09436815 66.02992249 76.09336853 C62.13201198 76.08954359 58.23413851 76.07971352 54.33624268 76.06866455 C50.36153667 76.05844992 46.38682471 76.0538708 42.41210938 76.04882812 C34.608056 76.03809122 26.80403318 76.02101509 19 76 C19.77442568 74.4211315 20.55238599 72.84399646 21.33178711 71.26757812 C21.76462509 70.38912231 22.19746307 69.5106665 22.64341736 68.60559082 C24.67279646 64.70775857 27.07842047 61.11880805 29.5625 57.5 C30.62511659 55.92846425 31.68761316 54.35684733 32.75 52.78515625 C33.28882813 51.99254395 33.82765625 51.19993164 34.3828125 50.38330078 C36.96263799 46.5813297 39.51368606 42.76030471 42.0625 38.9375 C42.55588867 38.19814209 43.04927734 37.45878418 43.55761719 36.69702148 C51.1941446 25.23096335 58.60391249 13.62242322 66 2 C33.33 1.505 33.33 1.505 0 1 C0 0.67 0 0.34 0 0 Z " fill="#2F394D" transform="translate(396,432)"/>
<path d="M0 0 C0.77030422 0.00085602 1.54060844 0.00171204 2.33425522 0.00259399 C11.72286142 0.01381758 21.11143014 0.03363686 30.5 0.0625 C30.5 0.3925 30.5 0.7225 30.5 1.0625 C29.67838379 1.04838074 28.85676758 1.03426147 28.01025391 1.01971436 C20.24203061 0.8969438 12.47646808 0.83231858 4.70735168 0.83190536 C0.71344312 0.82967101 -3.27774739 0.80548716 -7.27099609 0.72998047 C-11.13001395 0.65783865 -14.98523441 0.6448718 -18.8447876 0.67179108 C-20.31202078 0.6718466 -21.7794163 0.65108142 -23.24603271 0.6085434 C-27.86843093 0.48267014 -32.05883648 0.59123255 -36.5 2.0625 C-40.10421572 5.64766131 -42.23502718 9.55119384 -44.5 14.0625 C-45.48877735 15.52555069 -46.50058615 16.97391461 -47.5546875 18.390625 C-48.25053955 19.35887207 -48.25053955 19.35887207 -48.96044922 20.34667969 C-49.42725098 20.99540039 -49.89405273 21.64412109 -50.375 22.3125 C-54.66350374 28.3301738 -58.69395687 34.44821653 -62.56103516 40.74316406 C-66.17105095 46.5967006 -69.93880739 52.33820283 -73.75 58.0625 C-74.32862793 58.93487305 -74.90725586 59.80724609 -75.50341797 60.70605469 C-76.06432129 61.54555664 -76.62522461 62.38505859 -77.203125 63.25 C-77.69458008 63.98605469 -78.18603516 64.72210938 -78.69238281 65.48046875 C-79.28889648 66.33253906 -79.88541016 67.18460937 -80.5 68.0625 C-81.00154099 69.07878479 -81.00154099 69.07878479 -81.51321411 70.11560059 C-82.963886 72.65956366 -84.17657783 74.2597993 -86.5 76.0625 C-91.50504249 77.19198102 -96.43188369 76.99557207 -101.5234375 76.84375 C-102.99456701 76.82881454 -104.46573652 76.81743367 -105.93692017 76.80944824 C-109.79477297 76.77901385 -113.65018623 76.70053575 -117.50708008 76.61181641 C-121.44839475 76.52973108 -125.39010676 76.493389 -129.33203125 76.453125 C-137.05579545 76.36752461 -144.77755494 76.23113363 -152.5 76.0625 C-150.91131432 71.90872155 -148.88205252 68.40482915 -146.375 64.75 C-145.47745224 63.42345598 -144.58034942 62.09661085 -143.68359375 60.76953125 C-143.18327637 60.0317041 -142.68295898 59.29387695 -142.16748047 58.53369141 C-139.6031406 54.73336224 -137.07099726 50.91175043 -134.53417969 47.09301758 C-128.97304092 38.72346488 -123.37643537 30.3938668 -117.59375 22.17578125 C-115.94303479 19.72126628 -114.37802211 17.25708615 -112.84375 14.73046875 C-112.16481689 13.61575195 -112.16481689 13.61575195 -111.47216797 12.47851562 C-110.59115232 11.02111968 -109.71993363 9.55774454 -108.85986328 8.08789062 C-107.81907773 6.36245602 -106.66782194 4.70461785 -105.5 3.0625 C-104.51 3.0625 -103.52 3.0625 -102.5 3.0625 C-102.5 2.4025 -102.5 1.7425 -102.5 1.0625 C-93.27103559 0.88423037 -84.04186126 0.71876952 -74.8125 0.5625 C-73.76088181 0.54468412 -73.76088181 0.54468412 -72.6880188 0.52650833 C-48.45794669 0.1198479 -24.23333211 -0.0271256 0 0 Z " fill="#2F394E" transform="translate(702.5,431.9375)"/>
<path d="M0 0 C1.08171971 1.14923633 2.14109127 2.31996444 3.17578125 3.51171875 C4.18759711 4.45404132 5.21081301 5.38430051 6.24609375 6.30078125 C7.26549463 7.24483008 8.28369057 8.19018142 9.30078125 9.13671875 C10.43747509 10.19013105 11.57419457 11.24351567 12.7109375 12.296875 C13.57162842 13.09569092 13.57162842 13.09569092 14.44970703 13.91064453 C17.20846189 16.46961403 19.97323045 19.02205607 22.73828125 21.57421875 C23.27662598 22.07131348 23.8149707 22.5684082 24.36962891 23.08056641 C28.45490455 26.85111723 32.55126547 30.60942094 36.65209961 34.36303711 C40.37898555 37.77613163 44.09105588 41.20499157 47.80078125 44.63671875 C53.2157274 49.64410573 58.67701262 54.59634092 64.17578125 59.51171875 C63.17578125 61.51171875 63.17578125 61.51171875 60.77758789 62.39379883 C59.72434326 62.68665771 58.67109863 62.9795166 57.5859375 63.28125 C56.41764404 63.6102832 55.24935059 63.93931641 54.0456543 64.27832031 C52.78922119 64.6234668 51.53278809 64.96861328 50.23828125 65.32421875 C48.95008443 65.6838824 47.66208025 66.04423673 46.37426758 66.40527344 C42.64372214 67.44904567 38.90969143 68.48004859 35.17578125 69.51171875 C33.39684863 70.00939269 31.61816101 70.50794419 29.83984375 71.0078125 C20.63968521 73.58894919 11.41454948 76.07257493 2.17578125 78.51171875 C1.35078125 77.50109375 0.52578125 76.49046875 -0.32421875 75.44921875 C-3.23886702 72.04079478 -6.40887765 69.16176204 -9.8203125 66.26171875 C-11.74388589 64.58187298 -13.53735371 62.83521656 -15.32421875 61.01171875 C-17.65018504 58.640639 -20.04091134 56.41199392 -22.55859375 54.24609375 C-26.6585917 50.68120583 -30.62662657 46.99375614 -34.57421875 43.26171875 C-44.54041827 33.88053723 -54.63036478 24.64559233 -64.82421875 15.51171875 C-63.82421875 13.51171875 -63.82421875 13.51171875 -61.00219727 12.56958008 C-59.74850342 12.24755615 -58.49480957 11.92553223 -57.203125 11.59375 C-56.5197406 11.41527527 -55.8363562 11.23680054 -55.13226318 11.05291748 C-52.88585433 10.46815429 -50.63665665 9.89524292 -48.38671875 9.32421875 C-45.27664714 8.53004349 -42.16736672 7.73283678 -39.05859375 6.93359375 C-38.27748734 6.7335524 -37.49638092 6.53351105 -36.69160461 6.32740784 C-31.76190059 5.05247167 -26.89275286 3.65426338 -22.02734375 2.15234375 C-20.8561499 1.80067139 -19.68495605 1.44899902 -18.47827148 1.08666992 C-16.29690599 0.42574184 -14.12374249 -0.26307657 -11.96118164 -0.9831543 C-3.97796832 -3.34540614 -3.97796832 -3.34540614 0 0 Z " fill="#303A4E" transform="translate(588.82421875,277.48828125)"/>
<path d="M0 0 C1.22005682 -0.01064158 1.22005682 -0.01064158 2.46476126 -0.02149814 C5.18813026 -0.03908952 7.9100742 -0.02096815 10.63342285 -0.00291443 C12.58662059 -0.00805282 14.53981369 -0.01533349 16.49299622 -0.02459717 C21.79675998 -0.04312951 27.10002178 -0.03016087 32.40376472 -0.01050687 C37.95212525 0.00586571 43.50045363 -0.00293133 49.04882812 -0.00802612 C58.36665882 -0.01254863 67.68428887 0.00333257 77.0020752 0.03126526 C87.77729036 0.06331778 98.55214361 0.06330188 109.32738447 0.04605049 C119.68951935 0.03019104 130.05152145 0.03691525 140.41365051 0.0539875 C144.82505321 0.06086312 149.23634964 0.05982028 153.64775085 0.05244255 C158.841863 0.04478587 164.0355629 0.05688589 169.22960472 0.08429146 C171.13676416 0.09118282 173.04396204 0.09126524 174.95112038 0.08407593 C177.55291719 0.07539767 180.15343701 0.09130908 182.75512695 0.11352539 C183.51145086 0.10528462 184.26777476 0.09704386 185.04701757 0.08855337 C189.9314241 0.16563365 192.45305588 1.14037624 195.87756348 4.62818909 C197.42780812 7.72867837 197.16748363 10.20713126 196.87756348 13.62818909 C195.08193943 16.3814793 193.82501426 18.1544637 190.87756348 19.62818909 C188.29431928 19.73248734 185.73764556 19.77598592 183.15385437 19.77536011 C181.94376779 19.78087514 181.94376779 19.78087514 180.70923501 19.78650159 C177.99084272 19.79756409 175.27248861 19.80138659 172.55407715 19.80519104 C170.61117938 19.81145371 168.66828281 19.81810033 166.72538757 19.82510376 C161.43608695 19.8425307 156.14679537 19.85306993 150.85747313 19.86130929 C147.55513523 19.86645537 144.25280016 19.87253125 140.95046425 19.87882042 C130.62467529 19.89787637 120.29889352 19.9121072 109.97309035 19.92043239 C98.04151975 19.93021027 86.1101344 19.95654254 74.1786291 19.99693328 C64.9641479 20.02705927 55.74971991 20.04189788 46.5351904 20.0452134 C41.02800209 20.04756772 35.52101159 20.05657784 30.01387596 20.08167458 C24.83382084 20.10489907 19.65409456 20.10921119 14.47400093 20.09891319 C12.57165816 20.09841637 10.6692995 20.10477986 8.76700592 20.11846924 C6.17168134 20.13610241 3.57754791 20.12912478 0.98222351 20.11593628 C0.22774419 20.12690553 -0.52673512 20.13787477 -1.30407745 20.14917642 C-6.18870129 20.08916442 -8.6990388 19.11578855 -12.12243652 15.62818909 C-13.70141706 12.47022802 -13.94171823 9.02148273 -13.12243652 5.62818909 C-9.23666072 0.64642106 -6.04754038 -0.09463808 0 0 Z " fill="#2B354E" transform="translate(357.1224365234375,695.3718109130859)"/>
<path d="M0 0 C3.69294267 3.40887015 5.68843897 6.31503589 7.07910156 11.15112305 C7.504039 12.60865242 7.504039 12.60865242 7.93756104 14.09562683 C8.23144714 15.14043716 8.52533325 16.1852475 8.828125 17.26171875 C9.13699646 18.34451614 9.44586792 19.42731354 9.76409912 20.54292297 C10.41402872 22.83388464 11.05928164 25.12617746 11.70019531 27.41967773 C12.68039782 30.91219455 13.68700104 34.39636957 14.6953125 37.88085938 C15.32455213 40.11151847 15.95220795 42.34262507 16.578125 44.57421875 C16.88010803 45.60890793 17.18209106 46.64359711 17.4932251 47.7096405 C19.35776008 54.51143333 20.55568047 60.92568692 17.30859375 67.5546875 C13.39560526 71.84084927 10.01692541 73.61465117 4.4375 75.25 C4.4375 74.59 4.4375 73.93 4.4375 73.25 C3.85355469 72.98823975 3.26960937 72.72647949 2.66796875 72.45678711 C0.31081346 71.1814567 -1.31917432 69.79355179 -3.25 67.94140625 C-3.94262939 67.28229248 -4.63525879 66.62317871 -5.34887695 65.9440918 C-6.07937256 65.2406665 -6.80986816 64.53724121 -7.5625 63.8125 C-9.09708736 62.35096494 -10.63224595 60.89002943 -12.16796875 59.4296875 C-12.91868652 58.71393555 -13.6694043 57.99818359 -14.44287109 57.26074219 C-19.08656257 52.85560017 -23.83272173 48.56225301 -28.5625 44.25 C-29.57984324 43.31685976 -30.59676201 42.38325655 -31.61328125 41.44921875 C-36.24380904 37.19459554 -40.88311039 32.95098556 -45.5625 28.75 C-46.35398437 28.03714844 -47.14546875 27.32429688 -47.9609375 26.58984375 C-49.35893011 25.33249004 -50.75769004 24.07597442 -52.16113281 22.82470703 C-53.84117784 21.32567206 -55.51469347 19.819604 -57.1875 18.3125 C-57.72117187 17.83941406 -58.25484375 17.36632812 -58.8046875 16.87890625 C-60.09562506 15.71026804 -61.33436213 14.48446848 -62.5625 13.25 C-62.5625 12.59 -62.5625 11.93 -62.5625 11.25 C-56.55820471 9.56096235 -50.55214929 7.87861243 -44.54296875 6.20703125 C-40.1607477 4.98581603 -35.78935081 3.73539104 -31.42578125 2.44921875 C-8.56501803 -4.20737728 -8.56501803 -4.20737728 0 0 Z " fill="#303A4E" transform="translate(713.5625,245.75)"/>
<path d="M0 0 C2.25102658 1.12551329 3.11215244 2.21170092 4.69140625 4.15234375 C7.86268333 7.92045421 11.30605853 11.24339913 14.9375 14.5625 C16.26703582 15.79024685 17.59645969 17.01811492 18.92578125 18.24609375 C19.93825928 19.17784424 19.93825928 19.17784424 20.97119141 20.12841797 C24.20434256 23.11100964 27.41324845 26.11940817 30.625 29.125 C35.72761258 33.89156759 40.85083136 38.63498545 45.98754883 43.36474609 C53.03505742 49.8632817 60.01466928 56.43478876 67 63 C66 65 66 65 63.85449219 65.79370117 C60.82231335 66.60289742 57.78958011 67.40647125 54.75 68.1875 C53.69941406 68.47302734 52.64882813 68.75855469 51.56640625 69.05273438 C50.54933594 69.31763672 49.53226562 69.58253906 48.484375 69.85546875 C47.55334961 70.09934326 46.62232422 70.34321777 45.66308594 70.59448242 C42.80739531 71.0293286 40.77471758 70.73513059 38 70 C38 69.34 38 68.68 38 68 C37.34 68 36.68 68 36 68 C34.765625 66.7421875 34.765625 66.7421875 33.25 64.875 C29.70623511 60.69097507 25.89866959 56.84797767 22 53 C18.24324163 49.28785987 14.53912941 45.59809537 11.125 41.5625 C3.72889796 32.99183089 -3.34214219 28.15996161 -14.828125 26.62109375 C-23.57796113 26.23360101 -31.53552476 28.66972448 -38.375 34.1875 C-44.57085873 40.14163118 -47.53488438 46.47288036 -48 55 C-51.27650348 51.72349652 -51.8746526 47.31969841 -53.125 42.9375 C-53.40214844 42.02033203 -53.67929687 41.10316406 -53.96484375 40.15820312 C-57.86285654 26.61116851 -57.86285654 26.61116851 -54.79296875 20.66015625 C-54.26316406 20.13292969 -53.73335938 19.60570312 -53.1875 19.0625 C-52.66542969 18.51722656 -52.14335937 17.97195313 -51.60546875 17.41015625 C-48.49653646 14.67943957 -45.73029647 13.50982354 -41.80078125 12.44921875 C-40.76348877 12.16506104 -39.72619629 11.88090332 -38.6574707 11.58813477 C-37.55363037 11.29092529 -36.44979004 10.99371582 -35.3125 10.6875 C-26.52795718 8.28873854 -17.8362814 5.75523674 -9.20703125 2.84765625 C-5.98978918 1.99730116 -3.31052847 1.8342224 0 2 C0 1.34 0 0.68 0 0 Z " fill="#303A4E" transform="translate(332,345)"/>
<path d="M0 0 C3.1793909 0.07569978 5.30889688 0.36768037 7.69921875 2.5546875 C11.39586345 6.86893144 13.11737431 9.40134893 13.17700195 15.16479492 C13.19625481 16.7823896 13.19625481 16.7823896 13.21589661 18.43266296 C13.22328354 19.60343887 13.23067047 20.77421478 13.23828125 21.98046875 C13.246353 23.18181961 13.25442474 24.38317047 13.26274109 25.6209259 C13.2765931 28.16890007 13.28731023 30.71689287 13.29516602 33.26489258 C13.31235271 37.15416913 13.35622771 41.04259014 13.40039062 44.93164062 C13.41051959 47.40624374 13.41903505 49.8808541 13.42578125 52.35546875 C13.44328934 53.5161235 13.46079742 54.67677826 13.47883606 55.87260437 C13.4612377 62.45436114 13.1368182 66.75684914 9 72 C5.443474 74.55649837 3.01851909 75.37239795 -1.34106445 75.34057617 C-2.3817659 75.34034958 -3.42246735 75.34012299 -4.4947052 75.33988953 C-5.6063353 75.32440567 -6.71796539 75.30892181 -7.86328125 75.29296875 C-9.58396065 75.28660149 -9.58396065 75.28660149 -11.33940125 75.28010559 C-14.99734121 75.26333484 -18.654727 75.22568435 -22.3125 75.1875 C-24.79491391 75.17245114 -27.27733647 75.15876309 -29.75976562 75.14648438 C-35.84003231 75.11343649 -41.91997656 75.0632524 -48 75 C-43.26297311 67.48089518 -38.39473626 60.06281034 -33.4375 52.6875 C-23.13850366 37.29489338 -13.0974973 21.74557935 -3.671875 5.80078125 C-2.49892965 3.83582374 -1.26938614 1.90407921 0 0 Z " fill="#2F394E" transform="translate(733,433)"/>
<path d="M0 0 C1.77537895 0.01665459 1.77537895 0.01665459 3.58662415 0.03364563 C4.24055145 0.0329155 4.89447876 0.03218536 5.56822205 0.03143311 C7.72795314 0.03491448 9.88552235 0.073794 12.0448761 0.11299133 C13.54273297 0.12231769 15.04060509 0.12943464 16.53848267 0.13442993 C20.47951931 0.15351425 24.41963346 0.20262571 28.36030579 0.25794983 C32.38198873 0.30911241 36.40382085 0.33193747 40.42573547 0.35713196 C48.31613262 0.41074454 56.20578021 0.49607295 64.09565735 0.60127258 C58.88952228 10.08625374 58.88952228 10.08625374 56.1855011 14.22236633 C55.67696594 15.00289368 55.16843079 15.78342102 54.64448547 16.58760071 C53.84687805 17.80093079 53.84687805 17.80093079 53.03315735 19.03877258 C52.46661438 19.90566711 51.90007141 20.77256165 51.31636047 21.66572571 C47.12674481 28.06432671 42.88656639 34.42866538 38.63447571 40.7858429 C34.75247884 46.59696174 30.91232081 52.43454499 27.09565735 58.28877258 C26.28548157 59.52723938 26.28548157 59.52723938 25.4589386 60.79072571 C22.51506936 65.31775888 19.72309866 69.88324695 17.09565735 74.60127258 C16.43565735 74.60127258 15.77565735 74.60127258 15.09565735 74.60127258 C14.76565735 75.26127258 14.43565735 75.92127258 14.09565735 76.60127258 C3.86565735 76.60127258 -6.36434265 76.60127258 -16.90434265 76.60127258 C-16.90434265 75.94127258 -16.90434265 75.28127258 -16.90434265 74.60127258 C-15.90274109 74.09338196 -14.90113953 73.58549133 -13.8691864 73.06221008 C-2.58282698 67.25601463 6.26264704 62.10982797 11.2089386 49.83955383 C13.45287537 41.64473628 13.50636692 31.11846077 9.42378235 23.54267883 C6.95315159 19.93119799 4.09262109 16.77855157 1.09565735 13.60127258 C-0.22246155 12.10620776 -1.53515768 10.6063409 -2.84184265 9.10127258 C-3.42836609 8.43096008 -4.01488953 7.76064758 -4.6191864 7.07002258 C-5.04328796 6.58533508 -5.46738953 6.10064758 -5.90434265 5.60127258 C-3.76315442 0.7790684 -3.76315442 0.7790684 0 0 Z " fill="#F1B525" transform="translate(398.9043426513672,432.3987274169922)"/>
<path d="M0 0 C4.09206332 1.808121 6.69807584 4.16345973 9 8 C9.71782211 11.93206999 9.38527529 15.05821595 7.875 18.75 C4.57875265 22.70549682 1.63999354 24.76571521 -3.5 25.5 C-7.7336682 24.89519026 -9.77010591 23.78945399 -13 21 C-15.64201025 16.94891762 -16.70236884 13.8162435 -16 9 C-12.22558127 1.8705424 -8.11182548 -0.86912416 0 0 Z " fill="#F0B525" transform="translate(319,457)"/>
<path d="M0 0 C3.62844911 3.09485365 4.97980393 5.48153602 5.5 10.25 C4.98070103 15.18334018 3.7545611 18.37465197 0 21.6875 C-4.04842129 23.27166485 -7.5902714 23.62720192 -11.875 22.8125 C-15.02088913 21.13291513 -17.14054725 18.81402647 -19.25 15.9375 C-20.49467475 11.70560585 -20.4363394 8.11244387 -18.6875 4.0625 C-13.80218564 -2.00202817 -7.04373996 -2.90937085 0 0 Z " fill="#F0B525" transform="translate(322.875,389.1875)"/>
<path d="M0 0 C2.93423195 1.79646854 4.47205355 2.9441071 6 6 C6.42526125 10.62062705 6.56310381 14.71290557 4.6875 19 C2.60804147 21.46454344 0.93563483 22.86361933 -2.3046875 23.3359375 C-6.57276853 23.40080195 -9.24596584 23.43985326 -13 21.25 C-15.97870059 17.89896183 -16.87462312 16.12839194 -17.375 11.625 C-16.93060645 7.32919568 -15.70408706 5.32216411 -13 2 C-8.76447144 -0.82368571 -4.97522686 -0.66653757 0 0 Z " fill="#F1B625" transform="translate(386,459)"/>
<path d="M0 0 C21.12 0 42.24 0 64 0 C64.495 0.99 64.495 0.99 65 2 C64.01 3.32 63.02 4.64 62 6 C62 4.68 62 3.36 62 2 C41.54 1.67 21.08 1.34 0 1 C0 0.67 0 0.34 0 0 Z " fill="#E7A926" transform="translate(667,434)"/>
<path d="M0 0 C20.13 0 40.26 0 61 0 C61 0.99 61 1.98 61 3 C60.34 2.67 59.68 2.34 59 2 C57.12155092 1.88017743 55.23899169 1.82270839 53.35693359 1.79467773 C52.17586029 1.77473251 50.99478699 1.75478729 49.77792358 1.73423767 C47.85757797 1.70916893 47.85757797 1.70916893 45.8984375 1.68359375 C44.59170074 1.66281265 43.28496399 1.64203156 41.93862915 1.62062073 C38.463311 1.56540706 34.98793347 1.51599475 31.51251221 1.46777344 C27.966621 1.41755323 24.4208161 1.36186988 20.875 1.30664062 C13.9167415 1.19906772 6.95840504 1.09762083 0 1 C0 0.67 0 0.34 0 0 Z " fill="#E8A827" transform="translate(400,434)"/>
<path d="M0 0 C2.375 0.25 2.375 0.25 5 1 C5.67822842 2.32748952 6.34302849 3.66186299 7 5 C8.74584263 6.91407881 8.74584263 6.91407881 10.80859375 8.75 C11.55560547 9.4409375 12.30261719 10.131875 13.07226562 10.84375 C13.85279297 11.5553125 14.63332031 12.266875 15.4375 13 C16.98056279 14.41372724 18.52102555 15.83029879 20.05859375 17.25 C20.74236084 17.87390625 21.42612793 18.4978125 22.13061523 19.140625 C23.97718779 20.97730994 25.49409501 22.87912271 27 25 C23.51345524 23.5158627 21.35808928 21.53785948 18.75 18.8125 C15.86816168 15.85494836 12.96421175 13.04276369 9.8125 10.375 C6.1156095 7.21152857 3.07509728 3.76699416 0 0 Z " fill="#1E2B56" transform="translate(530,297)"/>
<path d="M0 0 C5.47035213 3.79037089 9.89962427 7.75027653 14 13 C9.94614063 11.19526171 7.13397514 8.54211524 3.90234375 5.55859375 C1.98116107 3.7955971 1.98116107 3.7955971 -1 3 C-0.67 2.01 -0.34 1.02 0 0 Z " fill="#1F2E57" transform="translate(617,305)"/>
<path d="M0 0 C3.45201639 1.47721422 5.64961936 3.43794001 8.25 6.125 C8.95640625 6.84945313 9.6628125 7.57390625 10.390625 8.3203125 C11.18726563 9.15175781 11.18726563 9.15175781 12 10 C8.07290865 10 7.1810287 8.72099538 4.3125 6.125 C3.50425781 5.40570313 2.69601562 4.68640625 1.86328125 3.9453125 C0 2 0 2 0 0 Z " fill="#1D2B54" transform="translate(506,355)"/>
<path d="M0 0 C1.32 0.33 2.64 0.66 4 1 C2.625 3.5 2.625 3.5 1 6 C0.34 6 -0.32 6 -1 6 C-1.33 6.66 -1.66 7.32 -2 8 C-2.66 7.67 -3.32 7.34 -4 7 C-2.68 4.69 -1.36 2.38 0 0 Z " fill="#26314F" transform="translate(733,433)"/>
<path d="M0 0 C-1.57914015 0.53341184 -3.16354387 1.05125763 -4.75 1.5625 C-5.63171875 1.85253906 -6.5134375 2.14257812 -7.421875 2.44140625 C-10.07834316 3.01697435 -11.47031106 2.89248371 -14 2 C-9.38048134 -0.66510692 -5.12794215 -1.46986273 0 0 Z " fill="#080F28" transform="translate(535,289)"/>
<path d="M0 0 C-2 2 -2 2 -4.6015625 2.1953125 C-5.59929687 2.17210937 -6.59703125 2.14890625 -7.625 2.125 C-9.12933594 2.09792969 -9.12933594 2.09792969 -10.6640625 2.0703125 C-11.43492187 2.04710937 -12.20578125 2.02390625 -13 2 C-8.17638048 -0.49497561 -5.39223163 -1.07844633 0 0 Z " fill="#1D1D31" transform="translate(435,401)"/>
<path d="M0 0 C0.99 0.33 1.98 0.66 3 1 C0.63707344 3.52588702 -0.66462511 4.88820837 -4 6 C-2.84826645 3.53199953 -1.95216435 1.95216435 0 0 Z " fill="#1D2951" transform="translate(349,633)"/>
<path d="M0 0 C2.31 0 4.62 0 7 0 C6.34 1.32 5.68 2.64 5 4 C1.125 2.25 1.125 2.25 0 0 Z " fill="#364159" transform="translate(389,433)"/>
<path d="M0 0 C1.32 0.33 2.64 0.66 4 1 C1.03 3.475 1.03 3.475 -2 6 C-2 3 -2 3 0 0 Z " fill="#202D51" transform="translate(597,436)"/>
</svg>
